<svg version="1" xmlns="http://www.w3.org/2000/svg" width="341.333" height="341.333" viewBox="0 0 256.000000 256.000000"><path d="M122.2 2.8c-5.8 1.9-10.7 7.7-12.3 14.6l-1.2 5.5h-9.8c-11.1 0-14.9 1.3-17.4 6.1-.8 1.6-1.5 4.2-1.5 5.8v3H66.6c-14.5-.1-17.1.7-21.1 6-2 2.6-2 4.5-2.3 91.5-.3 95.9-.5 91 5 96.7 2.3 2.4 3.9 3.2 6.5 3.3.7 0 1 .4.7.8-.2.5-1.2.5-2.1.2-1.2-.5-1.4-.3-.8.8.6.9.2.8-1.1-.3-1.4-1.3-2.3-1.4-3.8-.6-1.5.8-1.7.8-1.2-.3.4-.8-.2-.3-1.4 1.1-2 2.3-2 2.3-1 .2.7-1.5.7-2.2 0-2.2-.5 0-1 .6-1 1.2 0 .9-.3.8-1-.2-.8-1.3-1.1-1.3-2.2-.1-.7.8-.8 1.1-.2.8.6-.3 1.1 0 1.1.7 0 1.1-.4 1.2-1.8.3-1.3-.8-1.5-1.5-.8-2.3.7-.8.6-1.4-.1-1.9-.6-.4-.9-.1-.8.7.2.9-.8 1.3-2.9 1.2-1.8 0-3 .3-2.7.8.3.4-.3.8-1.4.8-1 0-2.2.3-2.6.7-1.1 1.1-3.7 1.2-3 .1.4-.6.1-.8-.7-.6-.8.3-1.3 1.1-1.1 1.7.1.7-.2.9-.8.6-.6-.4-.9-1.4-.5-2.3.3-.9.3-1.3-.1-.9s-1.4.1-2.3-.6c-1.4-1.1-1.4-1-.2.6 1.1 1.4 1.2 2 .2 3-1 .9-1.2.9-.9-.3.2-1.1-.6-1.5-3.2-1.6-3.7 0-7.4 2.2-6.3 3.9.4.6 0 .8-1 .4-.9-.3-1.9-.2-2.2.2-.2.5 1.1.8 3 .6 1.8-.1 4 .2 4.7.7.8.5.3.7-1.4.4-1.6-.3-2.8 0-2.8.5s.3.9.8 1c.4 0 2.4.2 4.4.3 2.1.1 4 .5 4.4.9.4.3 1.9 0 3.5-.9 2.6-1.3 2.9-1.3 2.9.1 0 .9-.4 1.4-.8 1.1-.4-.2-1.4 0-2.2.6-1.2.8-1.2.9.3.4.9-.3 1.7 0 1.7.6 0 .7.5.5 1.2-.4s2.4-1.9 3.7-2.3c1.9-.6 2.3-.4 1.8.8-.3.9.1 2.1.9 2.8 1.2 1 1.5 1 1.2 0-.3-1.4 2-2.3 6.4-2.3 1.7 0 2.5-.5 2.1-1.1-.3-.6-.1-.7.6-.3.6.4.9 1.2.6 1.7-.3.5.1.6 1 .3 1.1-.5 1.4-.2.9 1.2-.5 1.8-.5 1.8.6.1 1.1-1.8 1.3-1.8 3.7.5l2.6 2.3-1.8-2.8c-1.5-2.4-1.6-2.7-.1-2.1.9.3 1.6.9 1.6 1.3 0 .3 1 1.2 2.2 2l2.3 1.4-2-2.4c-1.1-1.3-1.6-2.1-1.1-1.6.5.4 1.9-.1 3-1 1.2-1 1.5-1.1.8-.3-1.8 2.1-1.5 3.5.5 1.9 1.5-1.2 1.6-1.2 1 .3-.7 1.9.8 3.4 1.8 1.8.3-.5 1.9-.8 3.6-.6 1.6.2 3.2 0 3.5-.5.2-.4 1.6-.4 3.1.2 1.8.7 3 .6 4-.2.8-.7 1.3-.8 1.2-.3-.1.5-.1 1.5 0 2.3.1 1.1.4 1 1.5-.4 1.3-1.8 1.3-1.8 2.5.1 1 1.6 1.2 1.6.7.2-.3-1-.1-1.8.5-1.8s.7-.5.3-1.2c-.4-.7-.3-.8.4-.4s1.2.1 1.2-.6c0-.8.5-.6 1.1.5.5.9 1.5 1.7 2.1 1.7.6 0 1.7.8 2.4 1.8 1.3 1.6 1.4 1.6.7-.3-.3-1.1-.3-1.7.2-1.3 1.1 1.1 3.6-1.2 2.8-2.5-.3-.6-.1-.7.6-.3.6.4.9 1.2.6 1.7-.4.5.1.9 1 .9s1.3.4 1 1c-.3.6.1.7.9.4.9-.3 1.4-.9 1.1-1.3-.2-.4.2-.8 1-.8 1.1 0 1.2.5.3 2.1-1 1.9-1 2 .5.7 1.4-1.1 1.7-1.1 1.7 0 0 .9.3 1 .8.4 1.3-1.8 3.6-1.7 5 .2 1.2 1.5 1.4 1.5.9.1-.3-.9 0-1.9.9-2.2.8-.3 1.2-.2.9.3-.3.5 0 1.3.6 1.7.7.4 1 .3.7-.2-.3-.5-.2-1.8.3-2.9.7-1.8.8-1.8.9.5.2 1.4.2 2.8.1 3.3 0 .4.3.7.9.7.5 0 1-.5 1-1.1 0-.6.7-.9 1.5-.5.8.3 2.1-.1 2.9-.9 1.1-1.1 1.6-1.2 1.9-.2.4.9.6.9.6-.1.1-.6.6-1.2 1.2-1.2.5 0 .8.4.5.8-.2.4.4 1.4 1.6 2.1 1.6 1 1.9 1 1.2-.1-1.3-2-1.3-3.7-.2-4.5.7-.4.8-.1.3.7-.6 1-.4 1.2 1 .6 1.4-.5 1.6-.4.6.7-.8 1.1-.5 1.6 1.7 2.6 2.3 1 2.4.9 1-.2-1.1-.9-1.4-1.8-.7-2.8.6-1 .9-1.1.9-.1 0 .7.5 1 1.2.6s.8-.3.4.4c-.8 1.3 2.8 1.2 4-.1 1.5-1.5 2.6-.6 1.3 1-1.1 1.5-1 1.5.8-.1 1.3-1 2-2.3 1.6-2.9-.3-.6-.1-.7.5-.3.9.5.9 1.3.2 2.6-1.6 3-1.2 3.4 1.1.9 1.4-1.7 1.9-1.9 1.5-.7-.3 1.2-.1 1.5.9 1.2.8-.3 1.1-1.2.8-2-.3-.8 0-1.4.7-1.4.6 0 .8.4.5 1-1 1.7 1.2 1.1 3.1-.8 1.4-1.3 1.7-1.4 1.2-.2-.3.9 0 2.4.8 3.5.8 1 1.4 1.3 1.4.6 0-.7.4-1 .8-.7.5.3.9-.1.9-.9 0-1.1-.4-1.2-1.4-.4-.9.8-1.3.8-1.3 0 0-.6.5-1.1 1.1-1.1.5 0 .7-.6.4-1.3-.4-.6.2-.2 1.2.9 1.4 1.5 2.9 2.1 5.1 1.9 1.8-.1 3.5.1 3.8.6.3.5 1 .9 1.7.9.6 0 .2-.6-.8-1.4-1.1-.8-2.8-1.2-3.9-1-1.5.3-1.7.1-.8-.8 1.5-1.5 4.4-2 3.6-.6-.8 1.3 5.8.6 6.9-.7.5-.6.7-.4.4.5-.2.8-1.1 1.4-2.1 1.2-.9-.2-1.6.3-1.6.9 0 .7.3.9.7.6.3-.4 1.2-.2 2 .5.8.6 1.3.7 1.2.2-.4-2.3.3-2.6 2.4-.8 2.2 1.9 2.2 1.9.5-.2-1-1.1-1.8-2.5-1.8-3s.4-.4.8.3c.4.6 2.5 1.3 4.7 1.5 3.3.4 3.9.8 3.7 2.4-.2 1.7-.2 1.8.8.2 1.4-2.3 1-3.2-1.8-3.4-1.2 0-2.6-.5-3-.9-.4-.5.1-.5 1.1-.2 1 .4 1.7.1 1.7-.6 0-.8.4-.6 1 .3.5.8 1 1.1 1 .6 0-.5.7-.3 1.5.4s1.5.9 1.5.4c0-.4.5-.3 1.2.4 1.5 1.5 2.9 1.6 2.6.1-.2-.6.5-1.3 1.5-1.4.9-.2 1.5.1 1.1.6-.3.5-1 .6-1.6.3-.7-.4-.8-.2-.4.4.4.6 1.4.8 2.3.5 1.2-.5 1.4-.3.8.8-.7 1.1-.6 1.2.6.3.8-.6 3.3-1 5.7-.9 2.3.1 4.2-.2 4.2-.7 0-.5-.4-.6-1-.3-.5.3-1 .2-1-.3 0-.6.7-1.3 1.6-1.6.8-.3 1.2-.2.9.3-.3.5-.1 1.2.4 1.5.5.4 1.2-.2 1.4-1.1.4-1.7.5-1.7.6-.1 0 1 .6 1.8 1.2 1.8s.9-.7.5-1.5c-.3-.8-.1-1.5.4-1.5.6 0 1 .6 1 1.4 0 1.9 2.3 2.7 4.1 1.4 1.1-.8 1.1-.9-.3-.4-1 .3-1.9.2-2.2-.2-.3-.4 1.1-.8 3-.9 3.1-.1 3.3.1 2.2 1.6-1.1 1.4-1.1 1.4.3.4.9-.7 2-.9 2.4-.5.5.4.5-.1.2-1-.3-1-.1-2 .5-2.4.7-.4.8-.3.4.4-.5.9.6 1.2 3.8 1.2 2.6 0 4.7.5 5 1.2.3.7.4-.1.1-1.7-.3-1.7-.2-2.5.2-2 .4.6 1.5 1 2.3 1 .8 0 2.3.9 3.3 2s1.6 1.5 1.3.8c-.4-.6-.2-1.4.4-1.8.6-.4.7-1.2.4-1.8-.4-.7-.3-.8.2-.4.5.5.9 1.3.9 1.8s.3.9.8.9h1.2c.3 0 .1-1-.6-2.1-.9-1.7-.8-2 .2-1.3 1.9 1.2 5.9 1.4 5.9.3 0-.5-.4-.9-1-.9-.5 0-1-.5-1-1.2 0-.8.6-.6 1.7.4 1.4 1.4 1.4 2 .3 3.3-1.1 1.3-1 1.5.4.9.9-.3 1.6-1.5 1.6-2.6 0-1 .5-1.6 1-1.3.6.4.7 1.2.3 1.8-.4.7.1.6 1-.2 1.6-1.2 1.6-1.6.2-3.1-.8-.9-1.3-2-1-2.3.3-.4.2-.5-.2-.2-.3.3-1.2 0-2-.6-.9-.9-1.3-.8-1.3 0 0 .6.4 1.1.8 1.1.5 0 .9.7.9 1.6 0 1.5-.1 1.5-1.2 0-.7-.9-2.4-1.6-3.9-1.6s-2.5-.4-2.2-.9c.4-.5-.3-.7-1.4-.4-1.2.3-2 .2-1.8-.3.2-.5-.1-.9-.7-.9-.5 0-.9.3-.8.7.4 1.1-2.6 1.7-3.3.6-.4-.7-.3-.8.4-.4 1.7 1 1.5.1-.2-1.3-1.1-.9-1.6-.9-2.2 0-.5.8-.3.9.6.4.8-.5 1.1-.4.7.2-.4.6-2.1.9-3.9.8-1.8-.2-3.9.2-4.7.8-1.2.9-1.3.9-.7-.1.4-.7.2-1.2-.4-1.2-.7 0-1-.7-.6-1.5.3-.8.1-1.5-.4-1.5-.6 0-1 .7-1 1.5 0 1-.8 1.4-2.2 1.1-1.3-.2-2.9.2-3.7.8-1.1.8-1.3.8-.8 0 .4-.7 0-1.5-.9-1.8-.8-.3-1.3-.2-1 .3.3.5 0 1.1-.7 1.4-.8.3-1.3-.3-1.3-1.4 0-1.1.4-1.9.8-1.9 1.4 0 4.9-3.5 6.5-6.3 1.2-2.5 1.4-14.8 1.5-91.3 0-84.6-.1-88.6-1.9-91.6-3.5-6-6.9-7.1-21.3-7.1l-12.7.1-.1-2.9c-.1-4.3-2.3-8.1-5.9-10.2-2.6-1.5-5.3-1.9-13.8-1.9H149v-2.4c0-5.2-4-12.2-8.8-15.4-2.5-1.6-5.3-3-6.1-3.1-6.6-.4-8.3-.3-11.9.9zm15.4 16.3c6.8 6.4 1.3 17.9-8.5 17.9-7.9 0-13.5-7.6-10.7-14.4 3.1-7.4 13.1-9.2 19.2-3.5zM61 238.4c0 .6-.5.3-1.1-.7-.6-.9-1.5-1.4-2.1-1.1-.7.4-.8.2-.4-.5.9-1.4 3.6.3 3.6 2.3zm3.7-1.7c0 .9-.4 1-1.4.2-.7-.6-1.3-1.2-1.3-1.4 0-.1.6-.2 1.3-.2.8 0 1.4.6 1.4 1.4zm36.3-1.3c0 .2-.7.7-1.6 1-.8.3-1.2.2-.9-.4.6-1 2.5-1.4 2.5-.6zm16 0c0 .2-.7.7-1.6 1-.8.3-1.2.2-.9-.4.6-1 2.5-1.4 2.5-.6zm3.7 1.1c0 .8-.4 1.2-.9.9-.5-.3-.6-1-.3-1.5.9-1.3 1.2-1.1 1.2.6zm21.7-.7c.3.5-.1.9-.9.9s-1.2-.4-.9-.9c.3-.4.7-.8.9-.8.2 0 .6.4.9.8zm14.6-.4c0 .2-.7.7-1.6 1-.8.3-1.2.2-.9-.4.6-1 2.5-1.4 2.5-.6zm31.6 1.1c-.1.8-.5 1.7-.8 2.1-.5.4-.4-1.6.1-3.4.3-.9.9.1.7 1.3zm8.4 1.9c0 .6-.5.3-1.1-.7-.6-.9-1.5-1.4-2.1-1.1-.7.4-.8.2-.4-.5.9-1.4 3.6.3 3.6 2.3zm4-2.2c0 .4-.4.8-.9.8-.6 0-1.2-.4-1.5-.8-.3-.5.1-.9.9-.9s1.5.4 1.5.9zm4-.2c0 .5-.2 1-.4 1-.3 0-.8-.5-1.1-1-.3-.6-.1-1 .4-1 .6 0 1.1.4 1.1 1zm-169.3 1.7c0 .9-.4 1-1.4.2-.7-.6-1.3-1.2-1.3-1.4 0-.1.6-.2 1.3-.2.8 0 1.4.6 1.4 1.4zM13.1 240c.6 0 .8-.4.5-.8-.2-.4.4-.9 1.5-.9 1.2-.1 1.9.5 1.9 1.5 0 1.5-.2 1.5-1 .2-.9-1.4-1.4-.7-1.1 1.3.1.4-.7.4-1.6-.1-1-.5-2.5-.7-3.3-.4-1.3.5-1.3.3 0-1.2.8-1.1 1.6-1.4 1.8-.7.2.6.8 1.1 1.3 1.1zm221.9-.6c0 .3-.4.8-1 1.1-.5.3-1 .1-1-.4 0-.6.5-1.1 1-1.1.6 0 1 .2 1 .4zm12.1 2.3c1.3 1.6 1.2 1.7-.3.4-1-.7-1.8-1.5-1.8-1.7 0-.8.8-.3 2.1 1.3zM21 241.4c0 .2-.7.7-1.6 1-.8.3-1.2.2-.9-.4.6-1 2.5-1.4 2.5-.6zm-4 2c0 .3-.4.8-1 1.1-.5.3-1 .1-1-.4 0-.6.5-1.1 1-1.1.6 0 1 .2 1 .4zm203.4 1.2c.3.8.2 1.2-.4.9-.6-.3-1-1-1-1.6 0-1.4.7-1.1 1.4.7zm-199.4 0c0 .8-1.9 1.3-2.4.6-.3-.5.1-.9.9-.9s1.5.2 1.5.3zm14.4 1.6c-.4.5-.9.7-1.2.4-.3-.3-1.2 0-2.1.7-1.4 1-1.4 1-.4-.4 1.3-1.6 4.6-2.3 3.7-.7zm27.6 2.4c0 .3-.5.2-1-.1-.6-.4-1.9-.1-2.8.7-1.5 1.1-1.5 1.1-.5-.3.7-.9.9-1.9.5-2.4-.4-.4.3-.2 1.6.4 1.2.6 2.2 1.4 2.2 1.7zm2.1-.9c1.3 1.6 1.2 1.7-.3.4-1-.7-1.8-1.5-1.8-1.7 0-.8.8-.3 2.1 1.3zm11.3 1.3c-.6.6-1 .3-1-1s.4-1.6 1-1c.7.7.7 1.3 0 2zm26.3-.7c0 .8-.6 1.4-1.4 1.4-.9 0-1-.4-.2-1.4.6-.7 1.2-1.3 1.4-1.3.1 0 .2.6.2 1.3zm3.4 1c-1 .9-1.1.8-.5-.6.3-1 .9-1.5 1.2-1.2.3.3 0 1.1-.7 1.8zm10.2-.7c.4-1.4.5-1.4.3 0-.2 2.4-4.2 2.6-4.2.3 0-1.7.2-1.7 1.7-.3 1.6 1.4 1.8 1.4 2.2 0zm40-.1c-.3.9-.8 1.4-1 1.1-.3-.3-.2-.9.2-1.5.9-1.6 1.5-1.3.8.4zm39.3-.2c.4.3-.4.4-1.6.2-3-.6-4-1.6-1.2-1.2 1.2.2 2.4.6 2.8 1z"/><path d="M213 233.9c0 .5.7 1.2 1.6 1.5 1.4.5 1.5.4.4-.9-1.4-1.7-2-1.9-2-.6zM224.6 235.3c-1.6 1.2-1.6 1.4-.3 1.4.9 0 1.8-.6 2.1-1.4.7-1.6.4-1.6-1.8 0zM25.7 236.7c.3.7.6 1.3.8 1.3.2 0 .5-.6.8-1.3.3-.8-.1-1.4-.8-1.4-.7 0-1.1.6-.8 1.4zM239.6 236.8c-.3.5.1.9.9.9s1.2-.4.9-.9c-.3-.4-.7-.8-.9-.8-.2 0-.6.4-.9.8zM248.7 240.1c.7.7 1.5 1 1.8.7.3-.3-.2-.9-1.2-1.2-1.4-.6-1.5-.5-.6.5zM239 246.1c0 .5.5.7 1 .4.6-.3 1-.8 1-1.1 0-.2-.4-.4-1-.4-.5 0-1 .5-1 1.1zM28.3 246.7c-1.5.5-1.7 2.3-.4 2.3.5 0 1.1-.7 1.5-1.5.3-.8.4-1.5.3-1.4-.1 0-.8.3-1.4.6zM228.6 247.3c.3 1 .9 1.5 1.2 1.2.3-.3 0-1.1-.7-1.8-1-.9-1.1-.8-.5.6zM36.6 247.9c-.3.4.6.7 1.9.7 1.4 0 2.2-.2 1.9-.5-.8-.8-3.4-1-3.8-.2zM81.5 249c-.3.5-.1 1 .4 1 .6 0 1.1-.5 1.1-1 0-.6-.2-1-.4-1-.3 0-.8.4-1.1 1zM67 249.9c0 .6.4 1.3 1 1.6.6.3.7-.1.4-.9-.7-1.8-1.4-2.1-1.4-.7zM91 250c0 .5.5 1 1.1 1 .5 0 .7-.5.4-1-.3-.6-.8-1-1.1-1-.2 0-.4.4-.4 1zM83.5 251c-.4.6-1.1.7-1.7.4-.7-.4-.8-.2-.4.5.6.9 1.1.9 2.2 0 1.4-1.1 1.8-1.9 1-1.9-.3 0-.8.5-1.1 1zM146.1 250.9c-.8.5-.9 1.1-.3 1.5.5.3 1.2-.1 1.6-.9.6-1.7.6-1.8-1.3-.6z"/></svg>