<?xml version="1.0" encoding="UTF-8" standalone="no"?>
<svg
   aria-hidden="true"
   focusable="false"
   data-prefix="fad"
   data-icon="clipboard-check"
   class="svg-inline--fa fa-clipboard-check fa-w-12"
   role="img"
   viewBox="0 0 384 512"
   version="1.1"
   id="svg8"
   sodipodi:docname=".svg"
   inkscape:version="1.1.1 (c3084ef, 2021-09-22)"
   xmlns:inkscape="http://www.inkscape.org/namespaces/inkscape"
   xmlns:sodipodi="http://sodipodi.sourceforge.net/DTD/sodipodi-0.dtd"
   xmlns="http://www.w3.org/2000/svg"
   xmlns:svg="http://www.w3.org/2000/svg">
  <defs
     id="defs12" />
  <sodipodi:namedview
     id="namedview10"
     pagecolor="#ffffff"
     bordercolor="#666666"
     borderopacity="1.0"
     inkscape:pageshadow="2"
     inkscape:pageopacity="0.0"
     inkscape:pagecheckerboard="0"
     showgrid="false"
     inkscape:zoom="0.48754095"
     inkscape:cx="1020.4271"
     inkscape:cy="303.56425"
     inkscape:window-width="2648"
     inkscape:window-height="1690"
     inkscape:window-x="2305"
     inkscape:window-y="178"
     inkscape:window-maximized="0"
     inkscape:current-layer="svg8" />
  <g
     class="fa-group"
     id="g6"
     transform="matrix(1,0,0,1.0008973,0,-0.45939596)">
    <path
       class="fa-secondary"
       fill="currentColor"
       d="m 336,64 h -80 a 64,64 0 0 1 64,64 H 64 A 64,64 0 0 1 128,64 H 48 A 48,48 0 0 0 0,112 v 352 a 48,48 0 0 0 48,48 h 288 a 48,48 0 0 0 48,-48 V 112 A 48,48 0 0 0 336,64 Z m -22.8,207.8 -143,141.8 a 12,12 0 0 1 -17,-0.1 L 70.6,330.2 a 12,12 0 0 1 0.1,-17 L 99.1,285 a 12,12 0 0 1 17,0.1 l 46,46.4 106,-105.2 a 12,12 0 0 1 17,0.1 l 28.2,28.4 a 12,12 0 0 1 -0.1,17 z"
       opacity="0.4"
       id="path2" />
    <path
       class="fa-primary"
       fill="currentColor"
       d="m 285.1,226.4 a 12,12 0 0 0 -17,-0.1 l -106,105.2 -46,-46.4 a 12,12 0 0 0 -17,-0.1 l -28.4,28.2 a 12,12 0 0 0 -0.1,17 l 82.6,83.3 a 12,12 0 0 0 17,0.1 l 143,-141.8 a 12,12 0 0 0 0.1,-17 z M 256,64 A 64,64 0 0 0 128,64 64,64 0 0 0 64,128 H 320 A 64,64 0 0 0 256,64 Z m -64,24 a 24,24 0 1 1 24,-24 23.94,23.94 0 0 1 -24,24 z"
       id="path4" />
  </g>
  <text
     xml:space="preserve"
     style="font-style:normal;font-weight:normal;font-size:342.402px;line-height:1.25;font-family:sans-serif;fill:#000000;fill-opacity:1;stroke:none;stroke-width:8.56002"
     x="452.01923"
     y="320.28207"
     id="text981"
     transform="scale(0.86760502,1.1525982)"><tspan
       sodipodi:role="line"
       id="tspan979"
       x="452.01923"
       y="320.28207"
       style="font-style:normal;font-variant:normal;font-weight:normal;font-stretch:normal;font-size:342.402px;font-family:Kokonor;-inkscape-font-specification:'Kokonor, Normal';font-variant-ligatures:normal;font-variant-caps:normal;font-variant-numeric:normal;font-variant-east-asian:normal;fill:#000000;stroke-width:8.56002">QSRTasks</tspan></text>
</svg>
